<mxfile host="www.draw.io" modified="2024-03-30T08:03:22.775Z" agent="Mozilla/5.0 (Windows NT 10.0; Win64; x64) AppleWebKit/537.36 (KHTML, like Gecko) Chrome/123.0.0.0 Safari/537.36" etag="AV26gyboh6nHyo6_Vsv8" version="24.2.1" type="device">
  <diagram name="Page-1" id="LDauwiDIof29YG4QVMVU">
    <mxGraphModel dx="1434" dy="746" grid="0" gridSize="10" guides="1" tooltips="1" connect="1" arrows="1" fold="1" page="0" pageScale="1" pageWidth="827" pageHeight="1169" math="0" shadow="0">
      <root>
        <mxCell id="0" />
        <mxCell id="1" parent="0" />
        <mxCell id="0JtQwpQYnw94Y0UQ3Tsz-1" style="edgeStyle=orthogonalEdgeStyle;rounded=0;orthogonalLoop=1;jettySize=auto;html=1;exitX=0.5;exitY=1;exitDx=0;exitDy=0;entryX=0.5;entryY=0;entryDx=0;entryDy=0;" parent="1" source="0JtQwpQYnw94Y0UQ3Tsz-2" target="0JtQwpQYnw94Y0UQ3Tsz-19" edge="1">
          <mxGeometry relative="1" as="geometry" />
        </mxCell>
        <mxCell id="0JtQwpQYnw94Y0UQ3Tsz-2" value="&lt;b&gt;&lt;font style=&quot;font-size: 16px;&quot;&gt;Input&lt;/font&gt;&lt;/b&gt;" style="rounded=0;whiteSpace=wrap;html=1;fillColor=#f5f5f5;fontColor=#333333;strokeColor=#666666;rotation=-90;" parent="1" vertex="1">
          <mxGeometry y="110" width="90" height="40" as="geometry" />
        </mxCell>
        <mxCell id="0JtQwpQYnw94Y0UQ3Tsz-3" value="" style="edgeStyle=orthogonalEdgeStyle;rounded=0;orthogonalLoop=1;jettySize=auto;html=1;" parent="1" source="0JtQwpQYnw94Y0UQ3Tsz-4" target="0JtQwpQYnw94Y0UQ3Tsz-6" edge="1">
          <mxGeometry relative="1" as="geometry" />
        </mxCell>
        <mxCell id="0JtQwpQYnw94Y0UQ3Tsz-4" value="&lt;span style=&quot;font-size: 16px;&quot;&gt;&lt;b&gt;Inception-ResNet-Depthwise Block&lt;/b&gt;&lt;/span&gt;" style="rounded=0;whiteSpace=wrap;html=1;fillColor=#0050ef;strokeColor=#001DBC;rotation=-90;fontColor=#ffffff;" parent="1" vertex="1">
          <mxGeometry x="190" y="87.5" width="120" height="85" as="geometry" />
        </mxCell>
        <mxCell id="0JtQwpQYnw94Y0UQ3Tsz-5" value="" style="edgeStyle=orthogonalEdgeStyle;rounded=0;orthogonalLoop=1;jettySize=auto;html=1;" parent="1" source="0JtQwpQYnw94Y0UQ3Tsz-6" target="0JtQwpQYnw94Y0UQ3Tsz-8" edge="1">
          <mxGeometry relative="1" as="geometry" />
        </mxCell>
        <mxCell id="0JtQwpQYnw94Y0UQ3Tsz-6" value="&lt;span style=&quot;font-size: 16px;&quot;&gt;&lt;b&gt;Reduction Block A&lt;/b&gt;&lt;/span&gt;" style="rounded=0;whiteSpace=wrap;html=1;fillColor=#ffe6cc;strokeColor=#d79b00;rotation=-90;" parent="1" vertex="1">
          <mxGeometry x="320" y="95" width="110" height="70" as="geometry" />
        </mxCell>
        <mxCell id="0JtQwpQYnw94Y0UQ3Tsz-7" value="" style="edgeStyle=orthogonalEdgeStyle;rounded=0;orthogonalLoop=1;jettySize=auto;html=1;" parent="1" source="0JtQwpQYnw94Y0UQ3Tsz-8" target="0JtQwpQYnw94Y0UQ3Tsz-10" edge="1">
          <mxGeometry relative="1" as="geometry" />
        </mxCell>
        <mxCell id="0JtQwpQYnw94Y0UQ3Tsz-8" value="&lt;span style=&quot;font-size: 16px;&quot;&gt;&lt;b&gt;2 * Inception ResNet Blocks B&lt;/b&gt;&lt;/span&gt;" style="rounded=0;whiteSpace=wrap;html=1;fillColor=#f8cecc;strokeColor=#b85450;rotation=-90;" parent="1" vertex="1">
          <mxGeometry x="440" y="95" width="110" height="70" as="geometry" />
        </mxCell>
        <mxCell id="0JtQwpQYnw94Y0UQ3Tsz-9" value="" style="edgeStyle=orthogonalEdgeStyle;rounded=0;orthogonalLoop=1;jettySize=auto;html=1;" parent="1" source="0JtQwpQYnw94Y0UQ3Tsz-10" target="0JtQwpQYnw94Y0UQ3Tsz-12" edge="1">
          <mxGeometry relative="1" as="geometry" />
        </mxCell>
        <mxCell id="0JtQwpQYnw94Y0UQ3Tsz-10" value="&lt;span style=&quot;font-size: 16px;&quot;&gt;&lt;b&gt;Reduction Block B&lt;/b&gt;&lt;/span&gt;" style="rounded=0;whiteSpace=wrap;html=1;fillColor=#fff2cc;strokeColor=#d6b656;rotation=-90;" parent="1" vertex="1">
          <mxGeometry x="560" y="95" width="110" height="70" as="geometry" />
        </mxCell>
        <mxCell id="0JtQwpQYnw94Y0UQ3Tsz-11" value="" style="edgeStyle=orthogonalEdgeStyle;rounded=0;orthogonalLoop=1;jettySize=auto;html=1;" parent="1" source="0JtQwpQYnw94Y0UQ3Tsz-12" target="0JtQwpQYnw94Y0UQ3Tsz-14" edge="1">
          <mxGeometry relative="1" as="geometry" />
        </mxCell>
        <mxCell id="0JtQwpQYnw94Y0UQ3Tsz-12" value="&lt;span style=&quot;font-size: 16px;&quot;&gt;&lt;b&gt;Inception ResNet Block C&lt;/b&gt;&lt;/span&gt;" style="rounded=0;whiteSpace=wrap;html=1;fillColor=#f8cecc;strokeColor=#b85450;rotation=-90;" parent="1" vertex="1">
          <mxGeometry x="670" y="95" width="110" height="70" as="geometry" />
        </mxCell>
        <mxCell id="0JtQwpQYnw94Y0UQ3Tsz-13" value="" style="edgeStyle=orthogonalEdgeStyle;rounded=0;orthogonalLoop=1;jettySize=auto;html=1;" parent="1" source="0JtQwpQYnw94Y0UQ3Tsz-14" target="0JtQwpQYnw94Y0UQ3Tsz-16" edge="1">
          <mxGeometry relative="1" as="geometry" />
        </mxCell>
        <mxCell id="0JtQwpQYnw94Y0UQ3Tsz-14" value="&lt;span style=&quot;font-size: 16px;&quot;&gt;&lt;b&gt;Dropout&lt;/b&gt;&lt;/span&gt;" style="rounded=0;whiteSpace=wrap;html=1;fillColor=#f5f5f5;strokeColor=#666666;rotation=-90;fontColor=#333333;" parent="1" vertex="1">
          <mxGeometry x="782.5" y="102.5" width="110" height="55" as="geometry" />
        </mxCell>
        <mxCell id="0JtQwpQYnw94Y0UQ3Tsz-15" value="" style="edgeStyle=orthogonalEdgeStyle;rounded=0;orthogonalLoop=1;jettySize=auto;html=1;" parent="1" source="0JtQwpQYnw94Y0UQ3Tsz-16" target="0JtQwpQYnw94Y0UQ3Tsz-17" edge="1">
          <mxGeometry relative="1" as="geometry" />
        </mxCell>
        <mxCell id="0JtQwpQYnw94Y0UQ3Tsz-16" value="&lt;span style=&quot;font-size: 16px;&quot;&gt;&lt;b&gt;Global Average Pooling&lt;/b&gt;&lt;/span&gt;" style="rounded=0;whiteSpace=wrap;html=1;fillColor=#e1d5e7;strokeColor=#9673a6;rotation=-90;" parent="1" vertex="1">
          <mxGeometry x="880" y="100" width="122.5" height="60" as="geometry" />
        </mxCell>
        <mxCell id="0JtQwpQYnw94Y0UQ3Tsz-17" value="&lt;span style=&quot;font-size: 16px;&quot;&gt;&lt;b&gt;Output(Softmax)&lt;/b&gt;&lt;/span&gt;" style="rounded=0;whiteSpace=wrap;html=1;fillColor=#f5f5f5;strokeColor=#666666;rotation=-90;fontColor=#333333;" parent="1" vertex="1">
          <mxGeometry x="975" y="100" width="132.5" height="60" as="geometry" />
        </mxCell>
        <mxCell id="0JtQwpQYnw94Y0UQ3Tsz-18" style="edgeStyle=orthogonalEdgeStyle;rounded=0;orthogonalLoop=1;jettySize=auto;html=1;exitX=0.5;exitY=1;exitDx=0;exitDy=0;entryX=0.5;entryY=0;entryDx=0;entryDy=0;" parent="1" source="0JtQwpQYnw94Y0UQ3Tsz-19" target="0JtQwpQYnw94Y0UQ3Tsz-4" edge="1">
          <mxGeometry relative="1" as="geometry" />
        </mxCell>
        <mxCell id="0JtQwpQYnw94Y0UQ3Tsz-19" value="&lt;span style=&quot;font-size: 16px;&quot;&gt;&lt;b&gt;STEM&lt;/b&gt;&lt;/span&gt;" style="rounded=0;whiteSpace=wrap;html=1;fillColor=#fff2cc;strokeColor=#d6b656;rotation=-90;" parent="1" vertex="1">
          <mxGeometry x="80" y="95" width="110" height="70" as="geometry" />
        </mxCell>
      </root>
    </mxGraphModel>
  </diagram>
</mxfile>
